 <svg  version="1.0" xmlns="http://www.w3.org/2000/svg"  width="900.000000pt" height="900.000000pt" viewBox="0 0 900.000000 900.000000"  preserveAspectRatio="xMidYMid meet">  <g transform="translate(0.000000,900.000000) scale(0.100000,-0.100000)" fill="#242f4d" stroke="none"> <path d="M2455 7794 c-39 -20 -104 -89 -121 -128 -8 -17 -18 -38 -23 -46 -5 -8 -17 -35 -26 -60 -9 -25 -23 -57 -31 -72 -8 -14 -14 -40 -14 -58 0 -17 -6 -43 -14 -58 -8 -15 -22 -95 -32 -177 -16 -141 -16 -156 0 -304 10 -86 24 -173 32 -194 21 -57 22 -197 2 -238 -9 -19 -36 -74 -60 -123 -103 -212 -249 -374 -368 -406 -46 -12 -74 -42 -65 -69 10 -32 101 -95 168 -115 24 -7 21 -32 -8 -70 -29 -39 -87 -148 -122 -231 -27 -64 -50 -163 -61 -260 -12 -103 19 -310 51 -342 16 -16 19 -16 50 2 17 10 47 31 65 47 18 15 39 28 46 28 18 0 27 -26 20 -54 -5 -20 2 -83 25 -228 10 -61 70 -195 123 -275 18 -27 79 -95 136 -153 108 -110 107 -108 84 -175 -42 -119 -53 -287 -27 -388 8 -32 15 -72 15 -90 1 -18 7 -43 15 -57 26 -45 19 -89 -34 -225 -6 -16 -18 -42 -26 -57 -8 -14 -15 -35 -15 -46 0 -12 -4 -24 -10 -27 -5 -3 -18 -25 -29 -48 -11 -23 -25 -49 -30 -57 -5 -8 -26 -51 -47 -95 -20 -44 -43 -92 -50 -107 -8 -14 -14 -35 -14 -46 0 -11 -6 -33 -14 -49 -65 -129 -65 -499 0 -651 8 -18 14 -40 14 -49 0 -15 13 -45 71 -169 20 -42 25 -84 10 -84 -5 0 -25 -24 -45 -53 -35 -51 -36 -54 -36 -147 0 -56 5 -105 13 -120 16 -33 77 -65 157 -85 36 -9 87 -23 114 -31 68 -20 299 -19 356 1 53 19 97 19 107 1 13 -22 131 -100 223 -147 l85 -44 133 -3 c114 -3 143 0 205 18 142 43 249 116 341 231 10 13 45 16 213 17 l201 2 22 -45 c47 -97 168 -165 355 -200 182 -34 317 -20 462 48 62 30 153 89 177 116 23 25 59 27 136 6 85 -23 401 -22 461 1 63 25 114 59 137 91 32 45 62 120 62 153 0 17 6 33 13 35 6 2 62 9 122 15 236 24 261 27 282 38 12 7 34 12 48 12 28 0 48 8 174 67 116 55 180 100 263 186 128 133 211 324 164 376 -13 14 -11 22 16 61 51 74 127 211 139 249 6 20 17 50 25 68 9 21 14 69 14 147 l0 116 -36 35 c-20 19 -40 35 -45 35 -5 0 -16 11 -24 24 -15 22 -15 30 1 88 13 48 17 104 16 233 0 168 -1 171 -36 275 -20 58 -40 106 -46 108 -5 2 -10 10 -10 17 0 23 -84 99 -146 131 -55 29 -60 35 -86 99 -41 100 -73 165 -102 208 -14 21 -26 40 -26 43 0 3 -21 33 -46 67 -94 125 -216 224 -306 249 -49 13 -159 15 -231 3 -37 -6 -56 -4 -85 10 -20 10 -53 25 -72 33 -19 8 -47 21 -62 29 -14 7 -36 13 -48 13 -12 0 -43 7 -69 15 -25 8 -72 17 -103 21 l-58 5 0 57 c0 31 -7 70 -15 86 -16 30 -19 58 -9 69 10 10 42 -10 117 -71 l69 -56 18 24 c23 31 30 86 30 239 -1 84 -6 139 -15 166 -8 22 -15 54 -15 70 0 17 -9 48 -20 70 -11 22 -19 45 -20 52 0 15 -63 146 -108 225 -43 77 -42 98 9 122 111 51 149 134 76 167 -12 5 -31 15 -42 22 -11 7 -45 26 -75 44 -64 37 -124 96 -174 172 -20 29 -36 54 -36 56 0 2 -22 50 -48 107 -27 57 -54 119 -62 138 -7 19 -20 44 -27 55 -17 26 -17 76 1 112 15 29 36 122 57 249 20 124 -16 439 -59 521 -7 12 -12 32 -12 45 0 13 -7 33 -15 44 -8 10 -15 25 -15 32 0 7 -17 48 -37 90 -40 82 -107 158 -149 168 -60 15 -174 -22 -268 -88 -153 -106 -165 -116 -289 -241 l-97 -99 -43 7 c-23 4 -57 14 -76 21 -53 22 -206 36 -306 28 -49 -4 -220 -8 -380 -8 -254 -1 -295 -3 -329 -18 -21 -10 -53 -18 -70 -18 -17 0 -41 -6 -52 -14 -28 -20 -51 -4 -150 104 -43 47 -92 96 -109 110 -17 14 -39 34 -50 45 -20 20 -121 98 -160 123 -11 7 -48 26 -82 42 -70 33 -122 38 -168 14z m153 -76 c150 -73 346 -238 477 -403 l31 -38 49 11 c28 6 95 24 150 40 143 42 202 47 341 27 119 -18 166 -17 324 5 123 18 295 -8 413 -62 l48 -22 64 69 c35 39 64 73 65 76 1 17 217 193 285 232 93 54 189 90 215 82 22 -7 90 -86 113 -131 107 -209 155 -597 105 -854 -15 -78 -24 -93 -49 -80 -11 6 -24 21 -28 33 -17 45 -139 203 -213 278 -43 42 -112 100 -155 128 -43 27 -89 59 -102 69 l-24 18 27 47 c35 59 112 130 210 192 79 50 94 75 56 95 -45 24 -159 -58 -269 -194 -67 -84 -111 -147 -111 -161 0 -5 24 -26 53 -45 207 -138 328 -245 418 -365 51 -68 109 -161 109 -174 0 -5 6 -16 14 -24 8 -8 38 -63 66 -123 107 -225 140 -288 186 -348 62 -80 134 -141 212 -178 81 -39 82 -59 8 -93 -46 -21 -70 -25 -145 -25 -81 0 -91 -2 -91 -18 0 -20 35 -43 93 -62 20 -6 42 -21 49 -33 6 -12 14 -24 18 -27 4 -3 28 -44 53 -93 48 -91 93 -213 120 -332 18 -75 25 -301 11 -315 -5 -5 -31 7 -59 26 -70 49 -156 87 -168 75 -15 -15 -9 -98 9 -132 18 -36 15 -206 -6 -279 -35 -125 -129 -267 -227 -342 -94 -73 -96 -72 -140 19 -21 43 -45 79 -54 81 -8 1 -26 -7 -40 -19 -43 -38 -109 -81 -192 -124 -96 -50 -110 -69 -46 -62 62 7 120 30 190 79 77 52 90 46 104 -43 12 -75 28 -83 94 -50 22 12 45 21 51 21 13 0 70 -60 70 -74 0 -5 14 -32 32 -60 29 -46 154 -291 459 -897 60 -119 109 -222 109 -231 0 -8 7 -23 15 -34 8 -10 15 -27 15 -37 0 -11 7 -33 15 -50 39 -86 64 -238 65 -397 0 -135 -2 -150 -29 -227 -16 -44 -42 -107 -57 -140 -30 -63 -99 -163 -114 -163 -4 0 -41 16 -80 37 -71 35 -111 47 -198 60 -41 6 -141 -17 -169 -39 -7 -6 -29 -14 -48 -18 -45 -10 -54 5 -32 53 21 46 72 183 90 242 20 64 47 281 46 370 0 67 -15 172 -18 130 -5 -69 -43 -321 -56 -375 -25 -96 -73 -234 -109 -314 -13 -28 -33 -73 -46 -101 -12 -27 -32 -72 -45 -100 -68 -148 -69 -154 -45 -216 44 -117 7 -220 -93 -258 -28 -11 -37 0 -37 44 0 28 -31 85 -46 85 -7 0 -11 -23 -10 -62 1 -48 -4 -69 -19 -90 -47 -64 -166 -90 -316 -69 -281 40 -389 112 -389 257 0 66 35 196 71 266 5 10 9 23 9 31 0 7 9 29 20 50 21 39 26 77 10 77 -5 0 -12 -12 -16 -27 -6 -27 -24 -72 -51 -125 -7 -14 -13 -33 -13 -41 0 -9 -6 -28 -14 -44 -8 -15 -29 -63 -47 -106 -25 -60 -37 -79 -56 -83 -13 -4 -104 -4 -201 -2 -180 4 -222 13 -222 46 0 8 -7 28 -14 45 -21 46 -66 175 -78 222 -5 22 -13 44 -19 50 -5 5 -9 20 -9 35 0 14 -7 38 -15 54 -8 15 -15 39 -15 51 0 30 -10 55 -21 55 -14 0 -11 -48 6 -83 8 -18 23 -67 34 -109 11 -42 25 -86 30 -97 6 -11 11 -33 11 -50 0 -16 5 -42 11 -58 6 -15 17 -63 24 -105 22 -130 -4 -180 -127 -241 -128 -63 -357 -95 -474 -66 -51 13 -94 57 -94 97 0 14 7 46 16 69 9 24 14 46 10 50 -11 11 -65 -48 -77 -84 -6 -20 -17 -33 -28 -33 -22 0 -73 47 -106 100 -25 39 -27 50 -22 107 3 47 1 63 -8 63 -22 0 -46 -50 -52 -106 -4 -36 -11 -58 -22 -63 -28 -14 -184 -35 -261 -35 -41 0 -89 5 -106 12 -55 23 -82 125 -48 178 20 30 13 40 -16 22 -26 -16 -50 -69 -50 -113 0 -46 -20 -60 -58 -41 -55 29 -82 71 -82 131 0 76 12 99 88 174 110 108 247 154 353 120 106 -34 191 -92 257 -173 18 -21 27 -25 35 -17 8 8 -7 47 -56 143 -71 142 -131 294 -166 423 -12 44 -28 103 -36 130 -27 100 -45 212 -48 293 -1 45 -6 83 -12 85 -17 4 -18 -180 -1 -278 9 -49 20 -115 25 -145 20 -116 57 -245 95 -337 38 -91 37 -94 -26 -76 -110 30 -126 33 -170 24 -90 -20 -119 -30 -173 -60 -43 -24 -60 -29 -74 -22 -32 17 -80 128 -113 259 -42 173 -49 325 -19 467 12 54 26 104 31 109 6 6 10 17 10 26 1 8 9 33 20 55 11 22 19 44 20 49 0 4 23 56 51 114 28 58 62 131 76 161 13 31 31 70 39 88 8 17 14 38 14 46 0 9 4 18 9 22 5 3 13 19 16 36 7 31 88 195 106 214 16 16 42 -21 50 -72 20 -133 117 -315 225 -420 49 -48 63 -52 89 -23 10 11 22 20 27 20 4 0 25 -26 45 -58 57 -90 150 -197 209 -242 78 -59 95 -54 99 29 1 39 5 46 22 46 12 0 42 -18 68 -40 66 -56 213 -161 255 -182 19 -10 37 -21 40 -24 3 -3 28 -16 55 -28 28 -13 58 -28 69 -33 67 -35 94 -38 153 -17 32 11 67 23 78 26 40 13 193 108 303 190 62 46 118 81 124 77 6 -4 8 -21 5 -39 -3 -20 0 -41 7 -51 12 -16 16 -17 48 -1 47 22 189 175 239 256 29 47 44 55 73 35 25 -16 28 -15 59 6 47 34 187 193 222 253 32 56 45 87 76 184 11 34 24 65 29 68 5 3 16 -10 24 -30 28 -66 62 -55 109 35 86 165 115 520 43 520 -12 0 -14 -27 -13 -137 0 -124 -2 -147 -27 -228 -16 -49 -37 -103 -49 -119 -19 -27 -21 -28 -34 -10 -7 10 -13 24 -13 31 0 18 -52 126 -65 135 -21 15 -35 -26 -35 -103 0 -119 -49 -259 -130 -371 -47 -65 -118 -138 -133 -138 -7 0 -24 20 -36 45 -12 25 -26 45 -31 45 -5 0 -29 -40 -54 -90 -47 -95 -108 -180 -175 -245 -45 -43 -61 -39 -61 16 0 15 -8 37 -18 49 l-19 23 -86 -80 c-107 -99 -202 -165 -342 -238 -145 -75 -180 -79 -277 -33 -40 20 -80 38 -88 42 -8 3 -24 12 -35 18 -199 127 -212 137 -322 241 -87 84 -105 85 -115 8 -3 -29 -10 -57 -15 -62 -24 -24 -156 132 -227 270 -26 51 -53 90 -59 88 -7 -2 -21 -21 -33 -43 -11 -21 -27 -40 -36 -42 -16 -3 -67 55 -107 121 -31 51 -71 134 -71 148 0 6 -6 25 -14 42 -24 56 -46 180 -47 262 -1 117 -7 129 -34 69 -99 -221 -108 -234 -132 -202 -13 18 -43 201 -43 263 0 56 33 253 54 331 17 61 64 164 75 164 5 0 19 -10 32 -22 34 -31 108 -81 139 -93 8 -3 28 -13 43 -21 31 -15 87 -19 87 -6 0 5 -24 19 -52 33 -87 39 -120 65 -184 141 -35 42 -69 73 -79 73 -21 0 -58 -65 -75 -130 -19 -68 -16 -66 -52 -45 -75 44 -202 200 -248 303 -59 133 -75 311 -41 443 10 40 21 76 25 82 12 20 -13 22 -51 5 -21 -10 -69 -39 -108 -65 -38 -27 -77 -48 -85 -48 -20 0 -40 96 -40 186 0 79 25 224 49 288 33 88 110 239 131 256 32 26 119 133 115 140 -3 5 -43 9 -88 8 -61 -2 -93 2 -119 15 -63 30 -60 38 27 86 32 19 81 52 108 75 49 41 131 146 159 201 49 96 88 178 88 185 0 20 125 255 173 326 102 152 278 316 439 410 37 21 68 45 68 52 0 41 -174 253 -259 315 -91 68 -171 85 -171 38 0 -20 70 -80 157 -134 73 -46 183 -156 183 -184 0 -13 -8 -27 -17 -30 -28 -11 -144 -92 -195 -137 -83 -73 -232 -250 -263 -314 -48 -97 -65 -84 -90 68 -14 84 -16 141 -12 300 9 294 52 468 146 589 67 85 112 96 209 49z m3222 -3094 c36 -8 79 -22 97 -30 17 -8 35 -14 40 -14 16 0 126 -62 178 -101 28 -20 80 -64 117 -98 36 -33 71 -61 77 -61 6 0 11 14 11 30 0 29 -54 102 -102 138 -17 12 -24 43 -13 54 10 9 132 -29 205 -64 175 -85 344 -300 399 -508 7 -25 16 -61 21 -80 14 -53 12 -169 -5 -233 -21 -81 -20 -117 4 -117 28 0 58 80 66 175 9 112 12 125 34 125 26 0 98 -83 126 -145 43 -96 50 -142 50 -315 0 -186 -17 -283 -66 -384 -47 -94 -34 -117 38 -67 59 42 103 40 115 -4 12 -41 0 -181 -18 -230 -32 -83 -67 -152 -109 -215 -47 -72 -155 -184 -219 -227 -65 -44 -83 -77 -50 -90 19 -7 51 9 128 64 32 24 62 43 67 43 18 0 21 -32 6 -63 -8 -18 -21 -45 -28 -62 -8 -16 -37 -60 -65 -98 -99 -132 -281 -241 -489 -293 -80 -20 -272 -43 -367 -43 l-78 -1 -26 40 c-31 46 -28 71 13 115 15 16 33 39 39 50 6 11 26 47 44 80 72 133 107 301 95 460 -8 95 -49 273 -85 365 -12 30 -26 69 -31 87 -5 18 -14 35 -19 38 -6 4 -10 13 -10 20 0 8 -26 70 -59 137 -32 68 -84 177 -116 243 -152 319 -233 478 -296 581 -38 63 -69 116 -69 120 0 3 -15 29 -34 57 -63 96 -63 97 -16 148 49 51 140 168 140 180 0 4 14 37 30 72 17 36 30 74 30 84 0 11 9 29 21 42 23 25 53 24 179 -5z m-58 -2765 c97 -50 181 -167 181 -254 0 -77 -59 -155 -118 -155 -22 0 -25 4 -25 35 0 38 -34 115 -50 115 -14 0 -12 -16 6 -51 15 -29 14 -33 -10 -70 -14 -21 -45 -48 -68 -60 -37 -19 -53 -21 -152 -16 -110 4 -188 18 -236 41 -21 10 -26 21 -30 66 -3 30 -11 65 -18 77 -21 38 -14 82 23 142 31 52 43 62 122 101 48 25 108 48 133 52 75 11 197 0 242 -23z"/> <path d="M3103 6105 c-47 -20 -85 -84 -86 -144 -1 -58 37 -125 81 -142 15 -6 35 -15 44 -20 27 -14 45 -11 104 17 64 30 94 77 94 148 0 56 -13 65 -40 26 -28 -40 -63 -40 -101 1 -16 17 -29 35 -29 39 0 17 42 59 63 63 21 3 21 4 -6 15 -37 16 -84 15 -124 -3z"/> <path d="M4306 6110 c-82 -25 -128 -135 -92 -221 23 -55 101 -109 156 -109 28 0 89 28 118 54 51 45 66 131 34 196 -19 38 -78 84 -95 73 -7 -4 -6 -8 3 -11 22 -7 50 -44 50 -67 0 -31 -28 -65 -53 -65 -27 1 -48 16 -71 52 -20 30 -11 59 25 78 44 24 -11 39 -75 20z"/> <path d="M3615 5781 c-100 -41 -145 -87 -145 -144 0 -81 98 -177 215 -212 61 -19 66 -37 22 -82 -66 -69 -218 -133 -312 -133 -92 0 -159 46 -183 126 -6 22 -19 67 -30 102 -10 35 -22 64 -27 65 -14 3 -23 -89 -15 -149 12 -92 95 -165 227 -198 l48 -12 6 -55 c27 -236 241 -395 450 -335 59 18 139 78 175 132 34 50 72 136 79 179 12 62 20 72 100 110 125 61 209 175 203 279 -2 29 -8 51 -16 54 -15 5 -42 -57 -42 -98 0 -64 -64 -147 -139 -181 -85 -37 -184 -18 -303 59 -111 71 -134 118 -68 134 85 22 152 73 190 148 27 53 25 80 -10 128 -28 39 -48 52 -134 86 -54 22 -236 20 -291 -3z m261 -56 c37 -16 38 -17 20 -31 -14 -10 -44 -14 -101 -13 -46 1 -90 -3 -103 -10 -26 -14 -117 -20 -128 -8 -5 4 -4 16 2 25 34 55 216 77 310 37z m123 -633 c63 -51 53 -113 -36 -210 -42 -46 -137 -85 -194 -80 -98 10 -184 72 -245 178 -26 44 -16 83 26 100 16 7 35 18 41 26 7 9 32 14 71 14 l59 0 19 -46 c23 -53 38 -53 63 0 22 45 47 57 111 51 35 -3 60 -13 85 -33z"/> <path d="M3540 2190 c0 -16 4 -30 8 -30 5 0 7 14 4 30 -2 17 -6 30 -8 30 -2 0 -4 -13 -4 -30z"/> <path d="M3560 2128 c0 -34 11 -68 21 -68 5 0 9 10 9 23 0 33 -11 67 -21 67 -5 0 -9 -10 -9 -22z"/> <path d="M4406 1974 c-8 -29 -3 -39 13 -29 13 8 15 55 2 55 -5 0 -12 -12 -15 -26z"/> </g> </svg> 